<?xml version="1.0" standalone="no"?>
<!DOCTYPE svg PUBLIC "-//W3C//DTD SVG 20010904//EN"
 "http://www.w3.org/TR/2001/REC-SVG-20010904/DTD/svg10.dtd">
<svg version="1.0" xmlns="http://www.w3.org/2000/svg"
 width="700.000000pt" height="700.000000pt" viewBox="0 0 700.000000 700.000000"
 preserveAspectRatio="xMidYMid meet">
<metadata>
Created by potrace 1.14, written by Peter Selinger 2001-2017
</metadata>
<g transform="translate(0.000000,700.000000) scale(0.100000,-0.100000)"
fill="#000000" stroke="none">
<path d="M1245 6777 c-11 -44 34 -146 154 -353 l54 -92 136 -50 c75 -28 163
-59 196 -71 82 -28 402 -118 445 -125 55 -9 137 -26 225 -46 35 -8 347 -75
400 -86 11 -2 31 -6 45 -9 14 -3 34 -7 45 -9 106 -22 569 -121 635 -137 47
-11 96 -23 110 -25 79 -15 345 -101 520 -169 733 -285 1306 -710 1686 -1250
154 -218 314 -576 351 -785 2 -14 8 -41 13 -60 4 -19 12 -57 16 -85 4 -27 9
-57 10 -65 23 -111 22 -622 -1 -693 -2 -7 -6 -37 -10 -67 -8 -81 -50 -282 -80
-385 -164 -570 -187 -625 -304 -745 -42 -43 -138 -120 -216 -175 -77 -54 -159
-113 -181 -131 l-42 -34 30 98 c16 53 31 104 33 112 2 8 17 62 35 120 80 264
140 512 155 635 12 103 17 141 22 165 9 47 11 515 3 590 -18 147 -30 224 -54
335 -33 153 -105 353 -191 530 -204 416 -521 783 -971 1122 -66 50 -125 92
-130 94 -5 2 -47 29 -94 60 -432 286 -1072 548 -1605 658 -33 7 -89 19 -125
26 -36 8 -173 38 -305 65 -132 28 -301 64 -375 80 -74 16 -256 54 -405 85
-148 31 -313 70 -366 86 -53 16 -100 29 -106 29 -36 0 -195 65 -391 161 -263
128 -314 150 -345 145 -53 -7 -22 -114 100 -346 75 -143 93 -171 215 -332 135
-177 269 -306 352 -338 38 -14 198 -55 311 -80 112 -24 102 -22 245 -51 58
-11 170 -37 250 -56 80 -19 152 -36 160 -38 64 -13 180 -48 209 -63 21 -11 39
-30 44 -47 12 -36 -6 -50 -123 -101 -117 -50 -113 -49 -230 -89 -157 -55 -268
-126 -271 -173 -7 -98 -9 -191 -10 -450 l-2 -303 -25 23 c-14 13 -76 72 -136
132 -61 60 -147 132 -191 161 -195 129 -409 132 -571 8 -46 -34 -111 -133
-138 -208 -21 -55 -24 -83 -24 -189 1 -187 33 -299 99 -347 l32 -22 19 23 c15
19 17 31 11 74 -12 79 -9 168 6 203 20 48 86 77 155 69 159 -18 344 -118 457
-246 106 -119 196 -309 235 -491 35 -168 48 -300 48 -504 0 -494 -75 -645
-449 -900 -44 -30 -132 -90 -195 -134 -63 -45 -173 -115 -245 -158 -136 -81
-225 -159 -243 -212 -21 -59 14 -50 226 55 253 124 250 123 331 130 117 11
240 -20 466 -116 95 -40 198 -92 590 -295 264 -137 837 -460 1060 -598 175
-107 196 -113 445 -111 322 2 769 116 1205 307 219 95 459 227 523 287 13 12
36 23 51 25 61 8 440 156 611 238 216 104 346 190 445 293 110 113 142 187
263 599 53 178 98 343 106 385 8 40 26 133 31 160 3 14 7 43 10 65 3 22 7 50
9 62 5 22 15 129 22 218 6 78 5 384 -1 440 -13 124 -15 142 -20 179 -9 67 -15
98 -41 206 -123 521 -411 986 -868 1405 -6 6 -54 47 -106 91 -420 355 -924
627 -1538 830 -138 46 -221 69 -427 118 -5 2 -28 6 -50 10 -22 4 -53 12 -70
16 -16 5 -43 11 -60 14 -40 6 -181 35 -225 46 -19 5 -51 12 -70 15 -19 3 -75
15 -125 26 -49 12 -100 23 -111 25 -22 4 -137 28 -329 69 -60 13 -197 42 -304
64 -385 81 -493 119 -893 309 -203 97 -263 112 -273 69z m1201 -1852 c44 -8
112 -26 153 -39 l74 -24 0 -1716 c0 -944 -3 -1719 -6 -1722 -3 -3 -47 19 -99
49 -255 150 -546 269 -798 327 -104 24 -160 63 -141 98 16 31 143 122 321 233
189 117 294 192 333 238 l27 33 0 1269 0 1269 29 0 c16 0 64 -7 107 -15z m490
-146 c542 -185 1018 -470 1354 -809 233 -236 376 -458 467 -729 19 -57 36
-111 38 -120 2 -9 8 -37 14 -63 6 -25 13 -68 16 -95 l6 -48 -212 -135 c-117
-74 -215 -136 -218 -137 -3 -2 -27 28 -54 65 -26 37 -56 79 -67 92 -10 14 -68
90 -127 170 -206 279 -332 445 -362 478 l-30 34 -268 -179 c-147 -98 -272
-180 -278 -183 -5 -3 -99 -65 -207 -137 -109 -73 -199 -133 -201 -133 -2 0 -3
443 -3 985 0 542 3 985 7 985 4 0 60 -18 125 -41z m300 -1910 c28 -10 61 -51
453 -567 107 -141 114 -151 138 -179 l21 -26 66 36 c36 20 119 73 183 118 351
242 756 500 765 485 16 -29 23 -143 22 -401 0 -336 -10 -528 -35 -685 -6 -36
-13 -78 -15 -95 -12 -76 -77 -314 -109 -398 -113 -293 -287 -538 -431 -604
-95 -43 -170 -26 -419 99 -66 33 -127 66 -136 74 -8 8 -19 14 -23 14 -4 0 -39
20 -77 45 -38 25 -72 45 -74 45 -3 0 -55 34 -117 77 -62 42 -230 155 -373 251
-143 96 -263 180 -266 186 -4 6 -6 298 -5 649 l1 637 60 42 c33 22 104 72 157
109 149 104 159 108 214 88z"/>
</g>
</svg>
