<?xml version="1.0" encoding="UTF-8"?>
<!-- Created with Inkscape (http://www.inkscape.org/) -->
<svg width="260" height="260" version="1.1" viewBox="0 0 260 260" xmlns="http://www.w3.org/2000/svg" xmlns:xlink="http://www.w3.org/1999/xlink">
 <defs>
  <linearGradient id="linearGradient4612" x1="165" x2="191" y1="921" y2="1069" gradientTransform="translate(-4.4 -7.6)" gradientUnits="userSpaceOnUse">
   <stop stop-color="#fde38f" offset="0"/>
   <stop stop-color="#caac3f" offset="1"/>
  </linearGradient>
 </defs>
 <g transform="translate(0 -863)">
  <g transform="matrix(1 .31 0 1 -4.4 -7.6)" fill="#b72323" aria-label="D">
   <path d="m256 938c0-27-10-47-31-61-18-12-41-18-69-18h-2.7c-0.89 0-2.3 0.089-4.3 0.27-2 0.18-3.4 0.27-4.3 0.27l-57 5.4-12 0.27c-23-2.9-33-9.4-17 13 8.2 9.7 15 14 19 14 1.4 0 3.5-0.089 6.2-0.27 2.7-0.18 5.8-0.45 9.4-0.8 6.3-0.72 12-1.2 16-1.3 4.3-0.36 7.5-0.54 9.7-0.54 2.5 0 3.8 0.72 3.8 2.1 0 1.1-3.9 4.2-12 9.4-7.9 4.8-12 8.7-12 12l-0.27 8.8v18c-0.89-0.36-3.2-1.9-7-4.6-3.9-2.9-8-4.3-12-4.3-3 0-5.9 0.72-8.6 2.1-2.5 1.3-4.7 2.9-6.7 5.1-1.8 2.1-3.3 4.6-4.6 7.5-1.1 2.7-1.6 5.5-1.6 8.3 0 8.6 1.7 13 5.1 13l1.3-1.9-0.8-5.6c0-5.7 3.4-8.6 10-8.6 16 0 24 13 24 38 0 7.3-0.72 13-2.1 18-2 5.5-5.3 11-9.9 15l-16 16c-3.6 3.4-6.3 5.9-8.3 7.5-3.6 3.6-5.5 6.4-5.6 8.6l1.1 0.27c3-2.5 5.7-4.6 8-6.4 2.5-2 4.5-3.6 5.9-4.8 4.1-3.4 9-5.1 15-5.1 2.3 0 5.5 0.27 9.4 0.8s8.7 1.4 14 2.7c4.1 0.89 7.2 1.6 9.4 2.1 2.3 0.36 3.8 0.63 4.3 0.8l19 4.8 9.1 2.4 9.4 2.9c8.9 0 22-5.4 40-16 7.5-4.6 14-9.2 20-14 5.9-4.5 11-8.8 15-13 5.4-5.4 9-12 11-19l5.1-19c3.4-12 5.1-25 5.1-37zm-34-1.6-16 15-18-19c-0.89-1.1-1.9-2.1-2.9-2.9-1.1-0.89-2.1-1.8-2.9-2.7l-36 35v-73c18 0 34 3.4 48 10 16 8.6 26 21 28 38zm2.1 17c0 8.8-0.27 17-0.8 24-1.4 15-5.5 29-12 41-5.2 9.5-10 14-15 14-7.5 0-18-2.7-32-8-3.6-1.4-6.9-2.7-9.9-3.8-3-1.1-5.7-2-8-2.7v-48l12-12c1.4-1.4 2.8-2.1 4-2.1l1.3 0.27 21 21c0.89-0.18 4.1-3 9.7-8.6l9.1-9.1 19-18c0.72 2.3 1.1 5.9 1.1 11zm-82 64c-11-3.4-21-4.8-31-4.3l-5.4 0.27-2.1-0.54c-0.72-0.18-1.1-0.45-1.1-0.8 0-1.3 4.3-5.8 13-14 8.6-7.7 13-12 13-14v-94c1.8-0.36 3.3-0.63 4.6-0.8 1.3-0.18 2.3-0.27 3.2-0.27h5.6z" fill="#b72323" stroke-width="1.4"/>
  </g>
  <path d="m49 878 20 15 107 23 49 62-7.9 91-33 18-106-38-43 18-22 9v-187z" fill="#b72323"/>
  <path d="m13 893 1.9 188 37-13v-187z" fill="#9e1f1f"/>
  <path d="m140 909c-0.82-0.25-2.1-0.57-3.9-0.95-1.8-0.39-3.1-0.7-3.9-0.95l-52-11-11-3c-5.7-1.6-17-6.2-17-6.2l-34 11-4.6 159 47 0.92 15-2.1 27 9.6c2.5 1.3 4.7 2.5 6.2 3.3 2.1 0.97 3.4 1.6 3.9 1.9l17 9.6 8.3 4.7 8.6 5.3c1.9 0.58 4 0.96 6.3 1.1 29 6.8 43-6 63-20l-0.099-0.01c4.4-3.3 7.4-7.7 9.1-13l4.6-16c3.1-10 4.6-21 4.6-32 0-25-9.5-46-28-65-16-16-37-28-63-36z" fill="url(#linearGradient4612)"/>
  <path d="m13 1081v-185l23 20 118 35 31 37-5.5 106-39 17-105-44z" fill="#b72323"/>
  <g transform="matrix(1 .31 0 1 -4.4 -7.6)" fill="#e33636" aria-label="D">
   <path d="m218 967c0-27-10-47-31-61-18-12-41-18-69-18h-2.7c-0.89 0-2.3 0.089-4.3 0.27-2 0.18-3.4 0.27-4.3 0.27l-57 5.4-12 0.27c-23-2.9-31-10-17 13 8.2 9.7 15 14 19 14 1.4 0 3.5-0.089 6.2-0.27 2.7-0.18 5.8-0.45 9.4-0.8 6.3-0.72 12-1.2 16-1.3 4.3-0.36 7.5-0.54 9.7-0.54 2.5 0 3.8 0.72 3.8 2.1 0 1.1-3.9 4.2-12 9.4-7.9 4.8-12 8.7-12 12l-0.27 8.8v18c-0.89-0.36-3.2-1.9-7-4.6-3.9-2.9-8-4.3-12-4.3-3 0-5.9 0.72-8.6 2.1-2.5 1.3-4.7 2.9-6.7 5.1-1.8 2.1-3.3 4.6-4.6 7.5-1.1 2.7-1.6 5.5-1.6 8.3 0 8.6 1.7 13 5.1 13l1.3-1.9-0.8-5.6c0-5.7 3.4-8.6 10-8.6 16 0 24 13 24 38 0 7.3-0.72 13-2.1 18-2 5.5-5.3 11-9.9 15l-16 16c-3.6 3.4-6.3 5.9-8.3 7.5-3.6 3.6-5.5 6.4-5.6 8.6l1.1 0.27c3-2.5 5.7-4.6 8-6.4 2.5-2 4.5-3.6 5.9-4.8 4.1-3.4 9-5.1 15-5.1 2.3 0 5.5 0.27 9.4 0.8s8.7 1.4 14 2.7c4.1 0.89 7.2 1.6 9.4 2.1 2.3 0.36 3.8 0.63 4.3 0.8l19 4.8 9.1 2.4 9.4 2.9c8.9 0 22-5.4 40-16 7.5-4.6 14-9.2 20-14 5.9-4.5 11-8.8 15-13 5.4-5.4 9-12 11-19l5.1-19c3.4-12 5.1-25 5.1-37zm-34-1.6-16 15-18-19c-0.89-1.1-1.9-2.1-2.9-2.9-1.1-0.89-2.1-1.8-2.9-2.7l-36 35v-73c18 0 34 3.4 48 10 16 8.6 26 21 28 38zm2.1 17c0 8.8-0.27 17-0.8 24-1.4 15-5.5 29-12 41-5.2 9.5-10 14-15 14-7.5 0-18-2.7-32-8-3.6-1.4-6.9-2.7-9.9-3.8s-5.7-2-8-2.7v-48l12-12c1.4-1.4 2.8-2.1 4-2.1l1.3 0.27 21 21c0.89-0.18 4.1-3 9.7-8.6l9.1-9.1 19-18c0.72 2.3 1.1 5.9 1.1 11zm-82 64c-11-3.4-21-4.8-31-4.3l-5.4 0.27-2.1-0.54c-0.72-0.18-1.1-0.45-1.1-0.8 0-1.3 4.3-5.8 13-14 8.6-7.7 13-12 13-14v-94c1.8-0.36 3.3-0.63 4.6-0.8s2.3-0.27 3.2-0.27h5.6z" fill="#e33636" stroke-width="1.4"/>
  </g>
 </g>
</svg>
