<?xml version="1.0" encoding="UTF-8" standalone="no"?>
<!-- Created with Inkscape (http://www.inkscape.org/) -->

<svg
   xmlns:dc="http://purl.org/dc/elements/1.1/"
   xmlns:cc="http://creativecommons.org/ns#"
   xmlns:rdf="http://www.w3.org/1999/02/22-rdf-syntax-ns#"
   xmlns:svg="http://www.w3.org/2000/svg"
   xmlns="http://www.w3.org/2000/svg"
   xmlns:sodipodi="http://sodipodi.sourceforge.net/DTD/sodipodi-0.dtd"
   xmlns:inkscape="http://www.inkscape.org/namespaces/inkscape"
   width="260"
   height="260"
   viewBox="0 0 260.00001 260"
   version="1.1"
   id="svg8"
   sodipodi:docname="logo-silhouette.svg"
   inkscape:version="0.92.4 (5da689c313, 2019-01-14)">
  <defs
     id="defs2" />
  <sodipodi:namedview
     id="base"
     pagecolor="#ffffff"
     bordercolor="#666666"
     borderopacity="1.0"
     inkscape:pageopacity="0.0"
     inkscape:pageshadow="2"
     inkscape:zoom="1.4"
     inkscape:cx="282.61259"
     inkscape:cy="156.91209"
     inkscape:document-units="px"
     inkscape:current-layer="layer1"
     showgrid="false"
     units="px"
     inkscape:window-width="1920"
     inkscape:window-height="1017"
     inkscape:window-x="-8"
     inkscape:window-y="239"
     inkscape:window-maximized="1" />
  <metadata
     id="metadata5">
    <rdf:RDF>
      <cc:Work
         rdf:about="">
        <dc:format>image/svg+xml</dc:format>
        <dc:type
           rdf:resource="http://purl.org/dc/dcmitype/StillImage" />
        <dc:title></dc:title>
      </cc:Work>
    </rdf:RDF>
  </metadata>
  <g
     inkscape:label="Layer 1"
     inkscape:groupmode="layer"
     id="layer1"
     transform="translate(0,-862.51966)">
    <path
       style="font-style:normal;font-variant:normal;font-weight:bold;font-stretch:normal;font-size:268.14538574px;line-height:1.25;font-family:Lohengrin;-inkscape-font-specification:'Lohengrin Bold';letter-spacing:0px;word-spacing:0px;fill:#b72323;fill-opacity:1;stroke:none;stroke-width:1.39659071"
       d="m 47.714844,7.4355469 c -3.309006,-0.2532454 -1.767651,4.0652921 6.240234,17.3398441 3.176157,1.243593 11.176358,4.324694 15.71875,5.583984 l 10.513672,2.96875 52.33008,11.121094 c 0.8151,0.24921 2.11885,0.567465 3.91211,0.953125 1.79323,0.38569 3.09853,0.705425 3.91406,0.953125 l 2.44531,0.742187 c 25.77043,7.82703 46.78771,19.749927 63.08985,35.628906 18.9105,18.465118 28.36523,39.977018 28.36523,64.531248 0,11.2202 -1.54907,21.96498 -4.64648,32.23828 l -4.64454,15.6543 c -1.67585,5.4143 -4.72617,9.75916 -9.10742,13.06836 l 0.0996,0.01 c -4.38037,3.09633 -8.49403,6.1301 -12.57226,8.91601 -2.99292,3.4457 -8.79493,5.51758 -8.79493,5.51758 l 0.57618,6.91797 c 0,0 14.12135,-4.88918 19.84179,-7.60938 5.89919,-2.6655 10.90601,-5.42469 15.01758,-8.27929 5.36291,-3.7233 9.02774,-8.77003 10.99414,-15.14063 l 5.09375,-17.21289 c 3.39651,-11.2963 5.09571,-23.11257 5.09571,-35.44727 0,-26.99328 -10.3689,-50.630697 -31.10547,-70.914058 C 202.21544,57.534043 179.15481,44.494625 150.91016,35.859375 l -2.68164,-0.820313 c -0.89381,-0.27326 -2.32462,-0.620518 -4.29102,-1.042968 -1.9664,-0.42242 -3.39524,-0.769699 -4.28906,-1.042969 L 82.265625,20.771484 70.734375,17.513672 C 59.282241,12.558092 51.047169,7.6905769 47.714844,7.4355469 Z"
       transform="translate(0,862.51966)"
       id="path824"
       inkscape:connector-curvature="0"
       sodipodi:nodetypes="sccccccccscccccccccccscccccccs" />
    <g
       aria-label="D"
       transform="matrix(1,0.30573068,0,1,-4.4461399,-7.5987369)"
       style="font-style:normal;font-variant:normal;font-weight:bold;font-stretch:normal;font-size:268.14538574px;line-height:1.25;font-family:Lohengrin;-inkscape-font-specification:'Lohengrin Bold';letter-spacing:0px;word-spacing:0px;fill:#e33636;fill-opacity:1;stroke:none;stroke-width:1.39659071"
       id="text814">
      <path
         d="m 217.68969,967.11158 c 0,-26.99331 -10.36829,-47.46174 -31.10487,-61.4053 -17.87635,-11.97716 -40.93686,-17.96574 -69.18151,-17.96574 h -2.68145 c -0.89382,0 -2.32393,0.0894 -4.29033,0.26815 -1.96639,0.17876 -3.3965,0.26814 -4.29032,0.26814 l -57.383114,5.36291 -11.530251,0.26815 C 14.323583,890.99923 5.8172671,883.6665 20.602831,906.51072 c 8.223125,9.65323 14.658614,14.47985 19.306467,14.47985 1.430109,0 3.485891,-0.0894 6.167344,-0.26815 2.681454,-0.17876 5.809817,-0.4469 9.385089,-0.80443 6.256725,-0.71505 11.530251,-1.16196 15.820578,-1.34073 4.290326,-0.35753 7.50807,-0.53629 9.653233,-0.53629 2.502691,0 3.754036,0.71505 3.754036,2.14516 0,1.07259 -3.932799,4.20095 -11.798397,9.38509 -7.865598,4.82662 -11.798397,8.67004 -11.798397,11.53025 l -0.268145,8.8488 v 18.23389 c -0.893818,-0.35753 -3.217745,-1.87702 -6.971781,-4.55847 -3.932799,-2.86022 -7.954979,-4.29033 -12.066542,-4.29033 -3.038981,0 -5.899198,0.71505 -8.580652,2.14516 -2.502691,1.25135 -4.737236,2.9496 -6.703635,5.09476 -1.787636,2.14517 -3.307126,4.64786 -4.558471,7.50808 -1.072582,2.68145 -1.608873,5.45229 -1.608873,8.3125 0,8.58065 1.698254,12.87098 5.094763,12.87098 l 1.340727,-1.87702 -0.804437,-5.63105 c 0,-5.72043 3.396508,-8.58065 10.189525,-8.58065 15.909959,0 23.864939,12.78159 23.864939,38.34478 0,7.3293 -0.715054,13.4073 -2.145163,18.2339 -1.966399,5.5417 -5.273526,10.6364 -9.921379,15.2843 l -16.356869,16.3568 c -3.575271,3.3965 -6.346107,5.8992 -8.312506,7.5081 -3.575272,3.5753 -5.45229,6.4355 -5.631054,8.5807 l 1.072582,0.2681 c 3.038981,-2.5027 5.720435,-4.6478 8.044362,-6.4355 2.50269,-1.9664 4.469089,-3.5753 5.899198,-4.8266 4.111563,-3.3965 9.027561,-5.0948 14.747996,-5.0948 2.323927,0 5.45229,0.2682 9.385089,0.8045 3.932799,0.5363 8.670034,1.4301 14.211705,2.6814 4.111563,0.8939 7.239926,1.6089 9.385089,2.1452 2.323927,0.3575 3.754035,0.6257 4.290326,0.8044 l 18.770172,4.8267 9.11695,2.4133 9.38509,2.9496 c 8.93818,0 22.16668,-5.3629 39.68551,-16.0888 7.50807,-4.6478 14.12233,-9.2063 19.84276,-13.6754 5.8992,-4.4691 10.90458,-8.7594 15.01614,-12.871 5.36291,-5.3629 9.02757,-11.5302 10.99396,-18.502 l 5.09477,-18.7702 c 3.39651,-12.33466 5.09476,-24.66933 5.09476,-37.00402 z m -33.78632,-1.60888 -16.08872,15.28429 -17.6976,-18.50203 c -0.89381,-1.07258 -1.87701,-2.05578 -2.9496,-2.9496 -1.07258,-0.89382 -2.05578,-1.78764 -2.9496,-2.68145 l -35.66333,34.59075 v -73.47184 c 18.23389,0 34.14385,3.39651 47.72988,10.18953 16.44625,8.58065 25.65257,21.0941 27.61897,37.54035 z m 2.14516,16.62502 c 0,8.75941 -0.26814,16.89314 -0.80443,24.40118 -1.43011,15.3737 -5.45229,29.0492 -12.06654,41.0263 -5.18415,9.4745 -10.18953,14.2117 -15.01615,14.2117 -7.50807,0 -18.05512,-2.6815 -31.64115,-8.0444 -3.57527,-1.4301 -6.8824,-2.6814 -9.92138,-3.754 -3.03898,-1.0726 -5.72043,-1.9664 -8.04436,-2.6815 v -47.99798 l 11.79839,-11.7984 c 1.43011,-1.43011 2.77084,-2.14516 4.02218,-2.14516 l 1.34073,0.26815 10.18953,10.18952 11.2621,11.26207 c 0.89382,-0.1787 4.11157,-3.0389 9.65324,-8.58061 l 9.11694,-9.11695 19.03832,-17.96574 c 0.71505,2.32393 1.07258,5.8992 1.07258,10.72582 z m -82.32063,63.81858 c -11.083343,-3.3965 -21.272867,-4.8266 -30.568574,-4.2903 l -5.362907,0.2681 -2.145164,-0.5363 c -0.715054,-0.1787 -1.072581,-0.4469 -1.072581,-0.8044 0,-1.2513 4.290326,-5.8098 12.870978,-13.6754 8.580653,-7.6869 12.870979,-12.4241 12.870979,-14.2117 v -93.85089 c 1.787636,-0.35753 3.307127,-0.62567 4.558472,-0.80444 1.251345,-0.17877 2.323926,-0.26815 3.217744,-0.26815 h 5.631053 z"
         style="stroke-width:1.39659071;fill:#e33636;fill-opacity:1"
         id="path828"
         inkscape:connector-curvature="0"
         sodipodi:nodetypes="scsscccccscccsscccccscccscccssccccccccsccccccccccccscccccccccsccscscccccccsccsccccscscsscc" />
    </g>
  </g>
</svg>
